# xmcd
#
# Track frame offsets:
#	150
#	46387
#	76245
#	113377
#	139645
#
# Disc length: 2131 seconds
# Revision: 0
# Processed by: cddbd v1.5.2PL0 Copyright (c) Steve Scherf et al.
# Submitted via: dBpowerAMP V12.0
#
DISCID=31085105
DTITLE=No Mercy - Kiss You All Over
DYEAR=1997
DGENRE=House
TTITLE0=Kiss You All Over [Johnny Vicious “Ova” Club Mix]
TTITLE1=Kiss You All Over [Spike Club Mix]
TTITLE2=Kiss You All Over [Johnny Vicious “Ova” Dub]
TTITLE3=Kiss You All Over [Spike Dub]
TTITLE4=Kiss You All Over [Radio Mix]
EXTD=
EXTT0=
EXTT1=
EXTT2=
EXTT3=
EXTT4=
PLAYORDER=
